<?xml version="1.0" standalone="no"?>
<!DOCTYPE svg PUBLIC "-//W3C//DTD SVG 20010904//EN"
 "http://www.w3.org/TR/2001/REC-SVG-20010904/DTD/svg10.dtd">
<svg version="1.0" xmlns="http://www.w3.org/2000/svg"
 width="992.000000pt" height="1280.000000pt" viewBox="0 0 992.000000 1280.000000"
 preserveAspectRatio="xMidYMid meet">
<g transform="translate(0.000000,1280.000000) scale(0.100000,-0.100000)"
fill="#000000" stroke="none">
<path d="M2052 12763 c-77 -73 -109 -254 -99 -558 11 -319 56 -582 115 -667
50 -71 218 -228 378 -351 95 -73 155 -127 163 -144 25 -63 45 -643 22 -658 -5
-3 -43 0 -83 7 -109 19 -439 16 -573 -5 -296 -46 -500 -138 -640 -289 -111
-119 -171 -255 -199 -449 -30 -204 -14 -576 30 -709 63 -186 207 -338 422
-445 50 -25 92 -49 92 -52 0 -3 -71 -78 -157 -167 -178 -182 -278 -297 -380
-438 -238 -328 -310 -566 -282 -928 l11 -147 -46 -81 c-234 -412 -276 -968
-121 -1577 51 -202 140 -446 215 -596 17 -32 30 -66 30 -75 0 -9 -25 -53 -55
-98 -112 -169 -142 -271 -255 -858 -120 -620 -149 -696 -365 -953 -169 -201
-206 -250 -242 -322 -35 -67 -36 -73 -23 -99 24 -44 68 -66 120 -60 165 21
486 293 615 522 85 149 145 345 225 729 29 138 72 310 96 383 49 151 125 319
148 328 10 4 27 -8 47 -33 84 -100 226 -227 340 -303 140 -93 209 -130 309
-164 40 -13 77 -29 83 -35 7 -7 -3 -23 -35 -53 -164 -156 -288 -365 -340 -575
-31 -125 -31 -359 0 -487 47 -188 120 -315 260 -447 220 -209 540 -325 992
-359 74 -5 179 -10 233 -10 71 0 97 -3 97 -12 0 -7 -86 -102 -190 -211 -183
-191 -220 -237 -220 -273 0 -15 8 -16 68 -11 80 7 182 42 314 108 227 114 397
242 545 412 28 31 50 47 65 47 39 0 256 56 378 98 364 125 716 333 979 578
160 149 304 345 352 479 30 83 37 211 15 270 -51 132 -251 223 -472 213 -90
-4 -111 -9 -166 -36 -147 -72 -240 -216 -290 -447 -20 -95 -15 -345 9 -427 11
-37 17 -72 13 -77 -12 -20 -465 -191 -506 -191 -26 0 -14 22 43 84 150 161
260 397 309 661 30 163 9 385 -52 545 -10 28 -17 77 -18 127 -1 79 -2 83 -35
117 -19 20 -32 39 -28 42 3 4 49 24 103 45 53 22 144 71 203 109 59 39 111 70
116 70 4 0 40 -30 79 -68 39 -37 143 -125 231 -197 491 -398 745 -651 930
-930 84 -126 148 -243 140 -255 -3 -5 -34 -24 -68 -42 -34 -18 -92 -62 -128
-98 -108 -107 -151 -215 -150 -379 0 -180 58 -355 187 -568 24 -39 44 -78 44
-85 0 -32 -131 -93 -223 -104 -29 -3 -129 2 -223 11 -512 53 -950 -64 -1139
-302 -89 -112 -137 -251 -137 -392 1 -96 38 -177 116 -248 109 -100 337 -183
554 -201 47 -3 112 11 112 26 0 3 -67 73 -148 156 -203 207 -251 281 -252 386
0 99 56 153 198 192 71 19 116 21 557 28 380 6 495 11 551 23 88 20 157 47
222 86 27 17 54 31 61 31 6 0 37 -21 68 -46 91 -74 159 -92 223 -59 38 19 80
82 80 117 0 23 -8 32 -52 54 -71 36 -136 81 -147 102 -7 14 1 34 36 87 61 94
172 324 221 462 54 147 72 240 72 366 0 72 4 108 13 115 18 15 327 -48 345
-71 6 -8 4 -51 -5 -112 -39 -269 20 -534 161 -722 48 -63 165 -168 245 -218
128 -80 310 -149 461 -176 117 -21 365 -17 480 8 116 25 259 78 335 124 166
100 298 286 341 477 9 43 18 83 20 90 4 14 20 21 119 52 279 89 496 312 595
612 29 90 55 240 55 328 0 196 -74 438 -196 637 -45 73 -44 63 -10 208 15 61
24 140 28 245 10 272 -22 396 -132 506 -30 30 -55 58 -55 60 0 3 17 26 38 52
56 67 77 106 108 197 23 67 28 102 32 217 12 348 -120 721 -527 1496 l-112
214 38 45 c234 279 389 573 472 896 115 445 141 942 71 1356 -97 570 -322 943
-730 1214 -296 196 -618 290 -1042 304 -129 4 -181 10 -189 19 -8 9 -7 61 2
186 6 95 15 181 18 190 3 9 48 55 99 102 74 69 98 86 123 86 37 0 95 52 103
93 3 15 8 37 11 50 2 12 31 56 64 97 68 85 132 192 168 280 31 78 42 229 43
581 0 221 3 273 16 305 21 50 13 108 -20 143 -14 14 -35 58 -47 96 -15 50 -32
80 -59 107 -46 46 -79 49 -135 11 -315 -210 -573 -644 -665 -1117 -52 -269
-47 -511 17 -761 25 -96 26 -108 20 -289 -4 -113 -11 -194 -18 -202 -6 -7 -35
-20 -64 -29 -134 -39 -318 -151 -433 -265 -186 -183 -292 -448 -292 -723 1
-522 433 -1009 946 -1068 54 -6 104 -13 110 -14 6 -2 39 -57 74 -122 34 -65
145 -272 246 -460 101 -187 184 -346 184 -352 0 -7 -44 -32 -97 -57 -131 -60
-278 -160 -368 -248 -57 -57 -81 -91 -113 -157 -22 -46 -45 -107 -52 -136 -14
-62 -20 -67 -85 -82 -160 -35 -248 -45 -425 -45 -167 -1 -192 1 -260 22 -169
53 -305 150 -416 293 -55 72 -124 197 -124 227 0 21 4 22 78 22 176 0 328 84
403 222 32 59 34 69 34 158 0 83 -3 102 -27 150 -75 154 -262 251 -453 237
-39 -3 -97 -15 -130 -26 -84 -30 -90 -30 -93 1 -3 22 2 28 31 37 18 6 49 28
69 49 106 110 115 172 43 304 -124 229 -130 243 -133 359 -3 84 4 163 32 366
20 142 42 325 49 407 l12 150 95 36 c282 108 444 244 528 444 65 155 6 426
-170 776 -242 484 -669 1029 -1028 1315 -41 33 -112 95 -158 138 -104 99 -168
130 -262 130 -81 0 -166 -36 -247 -104 -28 -24 -89 -64 -135 -89 -242 -130
-534 -363 -788 -628 -431 -448 -690 -925 -690 -1273 0 -32 -4 -60 -9 -63 -4
-3 -35 16 -67 42 -33 26 -83 62 -112 81 -30 19 -54 42 -56 55 -3 11 -14 102
-26 201 -12 99 -26 214 -31 255 -5 41 -13 134 -16 206 -5 120 -4 135 18 195
19 52 23 84 24 169 l0 105 -62 134 c-68 145 -200 394 -265 499 -23 37 -88 148
-145 247 -136 234 -223 364 -300 446 -61 64 -145 119 -184 119 -10 0 -36 -17
-57 -37z m541 -2868 c22 -9 22 -34 -4 -214 -29 -198 -70 -359 -119 -457 -32
-65 -62 -104 -152 -199 l-112 -118 -76 7 c-160 13 -288 64 -379 151 -67 64
-104 132 -133 248 -78 307 131 528 554 587 74 10 395 7 421 -5z m5422 -135
c248 -36 476 -149 633 -314 88 -93 123 -144 183 -269 124 -260 189 -570 189
-897 0 -402 -86 -718 -272 -1007 -41 -62 -50 -71 -84 -76 -93 -16 -73 -36
-307 301 -256 367 -379 552 -374 566 2 6 45 25 95 42 367 129 608 419 629 756
14 223 -63 441 -199 563 -103 92 -259 142 -418 132 -189 -11 -309 -92 -361
-244 -11 -35 -24 -63 -28 -63 -20 0 -30 435 -11 484 8 21 17 25 57 29 99 7
200 6 268 -3z m-575 -472 c-1 -445 13 -632 55 -740 11 -29 -23 -22 -114 22
-255 123 -364 392 -286 702 45 176 117 282 249 368 104 68 96 98 96 -352z
m-3680 315 c58 -29 164 -74 235 -101 l130 -48 3 -46 c3 -47 3 -47 -35 -57 -21
-6 -93 -28 -160 -50 -91 -28 -125 -35 -132 -27 -6 6 -22 45 -37 86 -14 41 -48
121 -75 177 -47 99 -57 128 -41 121 4 -2 54 -27 112 -55z m-569 -263 c54 -82
105 -201 96 -223 -3 -8 -82 -34 -204 -65 -110 -29 -203 -52 -206 -52 -16 0 -5
36 27 89 55 92 105 196 134 284 39 117 40 117 75 76 16 -19 51 -68 78 -109z
m5045 -154 c142 -66 161 -272 46 -515 -65 -140 -258 -241 -438 -229 -48 3 -49
4 -66 50 -41 112 -87 448 -61 448 5 0 20 -22 33 -50 28 -60 92 -127 145 -151
83 -38 215 -16 236 39 14 37 5 66 -61 182 -81 142 -81 193 3 231 56 25 102 24
163 -5z m-4008 -208 c12 -15 125 -368 153 -476 29 -112 25 -160 -22 -292 -73
-206 -91 -272 -86 -319 6 -50 37 -87 107 -124 33 -18 46 -31 53 -57 16 -63 6
-75 -73 -87 -147 -23 -273 -110 -332 -231 -29 -58 -33 -76 -33 -147 0 -67 5
-90 29 -142 63 -136 229 -242 383 -243 23 0 48 -3 57 -6 16 -6 21 -39 10 -68
-4 -9 -135 -93 -292 -187 -322 -193 -304 -188 -424 -132 -91 43 -123 74 -205
201 -122 188 -252 371 -335 474 -43 54 -78 102 -78 109 0 6 55 91 122 188 335
483 389 566 474 726 121 227 156 351 153 545 0 73 3 136 7 140 8 8 301 137
315 139 4 1 11 -5 17 -11z m-958 -371 c0 -25 -90 -169 -193 -309 -124 -169
-286 -407 -386 -570 -40 -65 -79 -122 -85 -127 -8 -7 -32 -7 -72 -1 -90 16
-278 13 -384 -4 -116 -19 -243 -55 -373 -106 -54 -21 -100 -34 -103 -28 -9 14
9 38 300 392 149 182 308 377 354 433 81 101 82 102 139 113 195 37 684 176
743 211 23 13 60 11 60 -4z m-1142 -1930 c-10 -23 -40 -103 -68 -177 -66 -174
-68 -180 -78 -180 -21 0 -202 263 -202 295 0 39 321 141 355 113 6 -5 3 -24
-7 -51z m6679 -637 c29 -46 318 -631 377 -763 86 -191 136 -338 143 -417 5
-57 2 -72 -20 -117 -15 -28 -46 -68 -69 -88 -41 -35 -150 -95 -174 -95 -8 0
-13 49 -17 153 -6 170 -18 229 -76 352 -66 141 -186 268 -335 358 -59 36 -60
36 -148 209 -48 95 -88 178 -88 185 0 6 51 40 113 76 61 36 144 88 182 116 77
56 94 60 112 31z m-437 -280 c12 -23 12 -24 -3 -11 -10 7 -17 20 -17 29 0 18
3 16 20 -18z m-1825 -170 c111 -16 125 -19 125 -29 0 -5 -35 -31 -77 -57 -42
-26 -103 -74 -135 -107 l-58 -58 -20 33 c-33 55 -112 248 -106 263 4 11 23 9
98 -10 51 -13 129 -29 173 -35z m-5107 -247 c93 -139 183 -254 265 -340 35
-36 57 -68 54 -76 -3 -8 -33 -20 -68 -26 -34 -7 -99 -26 -145 -42 -45 -16 -89
-29 -98 -29 -26 0 -73 177 -95 360 -14 107 -14 270 -1 270 5 0 45 -53 88 -117z
m6417 -157 c44 -9 83 -20 86 -24 13 -13 80 -203 104 -295 22 -83 32 -147 21
-147 -2 0 -32 11 -67 24 -157 59 -374 99 -633 116 -87 6 -166 15 -176 20 -28
15 -89 88 -96 115 -16 64 60 143 167 176 37 11 89 24 116 29 74 14 386 4 478
-14z m-3537 -206 l2 -185 -67 -55 c-211 -173 -459 -352 -481 -348 -19 4 -57
65 -73 119 -10 33 -9 40 12 69 21 27 24 42 22 108 l-1 76 71 71 c105 105 203
170 276 184 54 11 65 17 102 61 46 55 96 91 119 87 13 -2 15 -32 18 -187z
m-1316 -426 c9 -139 40 -244 114 -393 45 -91 60 -129 53 -138 -17 -20 -169
-74 -213 -76 l-41 -2 -7 98 c-12 162 -68 332 -153 462 -25 38 -44 73 -42 78 1
5 54 22 116 38 63 15 116 31 119 34 4 3 15 5 27 3 18 -3 21 -13 27 -104z
m-964 -50 c181 -37 332 -138 400 -268 49 -93 32 -238 -35 -298 -29 -27 -120
-42 -169 -29 -51 14 -134 64 -220 134 -67 53 -243 236 -334 345 -54 65 -50 78
41 109 79 27 205 30 317 7z m6946 -700 c72 -28 186 -99 186 -115 0 -13 -17
-11 -48 5 -50 25 -177 47 -317 54 -78 4 -140 11 -142 17 -2 6 16 31 40 57 l43
47 84 -19 c47 -10 116 -30 154 -46z m-2200 -18 c61 -40 130 -85 154 -100 40
-25 53 -48 32 -61 -27 -16 -179 84 -263 174 -79 84 -67 82 77 -13z m-3067
-423 c102 -126 196 -271 234 -360 31 -73 34 -86 34 -188 0 -103 -2 -114 -32
-177 -21 -46 -55 -91 -107 -145 l-76 -78 -67 75 c-194 217 -348 322 -543 371
-72 18 -102 21 -200 16 -139 -7 -236 -32 -349 -88 -173 -86 -305 -265 -318
-429 -3 -41 -1 -92 5 -112 16 -57 -5 -59 -51 -7 -211 235 -207 479 11 711 143
152 319 255 527 308 222 56 800 188 831 189 27 1 39 -9 101 -86z m5056 22
c143 -19 217 -54 314 -150 40 -39 73 -76 73 -82 0 -17 -144 -166 -216 -224
-36 -28 -86 -59 -112 -69 -66 -25 -202 -43 -270 -35 -121 14 -322 72 -322 94
0 3 30 42 66 86 86 105 163 221 210 318 l38 77 56 0 c30 0 103 -7 163 -15z
m-828 -185 c-3 -5 -11 -10 -16 -10 -6 0 -7 5 -4 10 3 6 11 10 16 10 6 0 7 -4
4 -10z m-365 -217 c32 -48 48 -82 43 -89 -4 -7 -53 -61 -108 -122 -113 -124
-197 -236 -261 -349 -24 -43 -47 -85 -52 -93 -7 -12 -28 -8 -133 23 -68 21
-178 51 -244 67 -66 17 -123 34 -126 38 -4 4 -25 63 -48 132 -23 69 -70 192
-106 275 -35 82 -62 151 -60 153 2 3 53 -6 112 -19 94 -21 134 -24 303 -24
208 1 354 17 524 60 50 13 94 23 98 24 3 1 29 -34 58 -76z m-2454 -53 c54 -30
94 -72 94 -97 0 -31 -35 -86 -111 -174 -44 -50 -107 -124 -140 -165 -34 -41
-68 -74 -75 -74 -29 0 -14 239 23 370 31 110 78 170 132 170 14 0 49 -13 77
-30z m4282 -250 c28 -77 45 -226 37 -313 -18 -183 -89 -295 -229 -367 -67 -34
-104 -38 -112 -12 -36 113 -108 192 -176 192 -33 0 -85 -35 -109 -72 -19 -32
-21 -64 -7 -153 3 -19 -2 -20 -87 -17 -190 5 -544 80 -969 204 -98 29 -181 58
-183 66 -3 7 14 38 38 69 63 84 349 373 368 373 10 0 54 -13 99 -30 233 -85
511 -124 720 -100 191 21 362 86 501 191 75 56 77 55 109 -31z m-6271 -143
c29 -15 68 -42 86 -61 41 -41 180 -230 198 -270 17 -36 6 -44 -103 -86 -221
-85 -410 -78 -522 21 -66 58 -90 109 -91 189 0 150 116 244 295 237 68 -3 95
-9 137 -30z m3084 -444 c17 -43 15 -275 -4 -378 -21 -115 -39 -176 -52 -177
-28 -1 -105 252 -105 346 0 94 16 135 71 189 56 54 75 58 90 20z m1439 -189
c113 -36 345 -117 515 -179 436 -158 470 -168 639 -189 l91 -12 -3 -48 c-3
-70 -27 -112 -106 -191 -84 -84 -173 -132 -316 -169 -449 -118 -883 4 -1033
291 -49 96 -71 203 -64 318 7 122 40 245 66 245 4 0 99 -30 211 -66z"/>
</g>
</svg>
